<svg width="85" height="93" viewBox="0 0 85 93" fill="none" xmlns="http://www.w3.org/2000/svg">
<path d="M35.4166 69.75C41.703 69.7486 47.8082 67.4461 52.7601 63.209L68.3293 80.2435L73.3372 74.7643L57.768 57.7298C61.6426 52.3112 63.7484 45.6298 63.7499 38.75C63.7499 21.6574 51.0389 7.75 35.4166 7.75C19.7943 7.75 7.08325 21.6574 7.08325 38.75C7.08325 55.8426 19.7943 69.75 35.4166 69.75ZM35.4166 15.5C47.136 15.5 56.6666 25.9276 56.6666 38.75C56.6666 51.5724 47.136 62 35.4166 62C23.6972 62 14.1666 51.5724 14.1666 38.75C14.1666 25.9276 23.6972 15.5 35.4166 15.5Z" fill="#222222"/>
</svg>
